<svg data-v-423bf9ae="" xmlns="http://www.w3.org/2000/svg" viewBox="0 0 385 90" class="iconLeft"><!----><!----><!---->
<!----><g data-v-423bf9ae="" id="a8aa1101-7c19-4418-9998-02e757ca44e4" transform="matrix(2.50457943889419,0,0,2.50457943889419,104.2289719447094996,-80.023832640299176)" stroke="none" fill="white"><path d="M27.143 94.794C14.932 94.794 5 84.862 5 72.652V35.498c0-3.549 2.877-6.427 6.428-6.427s6.428 2.878 6.428 6.427v37.155c0 5.121 4.166 9.287 9.287 9.287s9.287-4.166 9.287-9.287a9.278 9.278 0 0 0-5.068-8.279 6.43 6.43 0 0 1 5.868-11.443c7.433 3.814 12.056 11.37 12.056 19.72-.001 12.211-9.932 22.143-22.143 22.143z"></path><path d="M65.715 79.083a6.432 6.432 0 0 1-6.431-6.431c0-15.46-11.01-28.752-26.177-31.594a6.432 6.432 0 0 1-5.139-7.5 6.433 6.433 0 0 1 7.506-5.136c21.246 3.981 36.668 22.584 36.668 44.23a6.43 6.43 0 0 1-6.427 6.431z"></path><path d="M88.572 79.083a6.432 6.432 0 0 1-6.431-6.431c0-27.938-20.892-51.424-48.595-54.632a6.429 6.429 0 1 1 1.48-12.773C69.216 9.207 95 38.185 95 72.652a6.43 6.43 0 0 1-6.428 6.431z"></path></g><!----></svg>